<?xml version="1.0" encoding="UTF-8"?>
<svg xmlns="http://www.w3.org/2000/svg" width="512" height="512" viewBox="0 0 512 512">
  <defs>
    <linearGradient id="g1" x1="0" x2="1" y1="0" y2="1">
      <stop offset="0" stop-color="#8B5CF6"/>
      <stop offset="1" stop-color="#A78BFA"/>
    </linearGradient>
    <clipPath id="round">
      <circle cx="256" cy="256" r="240"/>
    </clipPath>
  </defs>

  <!-- Background accent ring (transparent center for avatar use) -->
  <circle cx="256" cy="256" r="240" fill="none" stroke="url(#g1)" stroke-width="16" opacity="0.35"/>
  <g clip-path="url(#round)">

    <!-- Subtle stars -->
    <g opacity="0.25" fill="#8B5CF6">
      <circle cx="100" cy="120" r="2"/>
      <circle cx="420" cy="160" r="2"/>
      <circle cx="360" cy="90" r="1.5"/>
      <circle cx="140" cy="360" r="1.5"/>
      <circle cx="300" cy="330" r="1.5"/>
    </g>

    <!-- Laptop -->
    <g transform="translate(110,300)">
      <rect x="90" y="22" rx="8" ry="8" width="190" height="22" fill="#111827" opacity="0.25"/>
      <path d="M0 0h220a8 8 0 0 1 8 8v108H8a8 8 0 0 1-8-8V0z" fill="#E5E7EB"/>
      <rect x="8" y="8" width="212" height="92" rx="6" fill="#F3F4F6"/>
      <circle cx="114" cy="56" r="5.5" fill="#A78BFA"/>
      <rect x="60" y="124" width="108" height="10" rx="5" fill="#D1D5DB"/>
    </g>

    <!-- Neck -->
    <rect x="236" y="250" width="40" height="36" rx="12" fill="#F8D3C4"/>

    <!-- Hair behind head -->
    <path d="M330 284c0 78-62 116-130 116s-130-38-130-116 59-122 122-122 138 24 138 122z"
          fill="#1F2937"/>

    <!-- Face -->
    <ellipse cx="256" cy="230" rx="66" ry="70" fill="#F8D3C4"/>

    <!-- Hair top/side -->
    <path d="M316 220c-3-36-30-72-84-72-40 0-71 22-82 54 0 0 36-8 55 2 16 8 32 8 48 2
             20-7 40 3 63 14z" fill="#111827"/>
    <path d="M312 288c16-30 12-64-6-86-9-10-22-18-39-22 13-4 25-5 35-2 27 7 42 31 44 66
             1 15-10 32-34 44z" fill="#111827"/>

    <!-- Eyes -->
    <circle cx="234" cy="228" r="5.2" fill="#111827"/>
    <circle cx="279" cy="228" r="5.2" fill="#111827"/>
    <path d="M224 214c8-6 16-6 24 0" stroke="#111827" stroke-width="3" stroke-linecap="round" opacity="0.25"/>
    <path d="M268 214c8-6 16-6 24 0" stroke="#111827" stroke-width="3" stroke-linecap="round" opacity="0.25"/>

    <!-- Nose -->
    <path d="M256 236c0 8-3 14-8 14" stroke="#E39E83" stroke-width="3" stroke-linecap="round" fill="none"/>

    <!-- Mouth -->
    <path d="M238 258c8 10 28 10 36 0" stroke="#D77C6B" stroke-width="4" stroke-linecap="round" fill="none"/>

    <!-- Shirt -->
    <path d="M180 356c4-48 36-88 76-88s72 40 76 88c0 0-42 20-76 20s-76-20-76-20z" fill="url(#g1)"/>
    <path d="M227 280c-12 5-23 14-32 26-4 5-8 11-11 17 21 14 45 21 72 21s51-7 72-21
             c-12-21-29-37-49-43-4 10-13 17-23 17s-19-7-23-17c-2 0-4 0-6 0z"
          fill="#A78BFA" opacity="0.55"/>

    <!-- Arms -->
    <path d="M204 318c-5 10-10 20-14 30 18 10 40 16 66 16 4 0 8 0 12-0.2-14-5-26-14-34-26-10-2-20-9-30-20z"
          fill="#F5C6B2" opacity="0.95"/>
    <path d="M308 318c5 10 10 20 14 30-18 10-40 16-66 16-4 0-8 0-12-0.2 14-5 26-14 34-26 10-2 20-9 30-20z"
          fill="#F5C6B2" opacity="0.95"/>

    <!-- Foreground sparkles -->
    <g opacity="0.35">
      <circle cx="420" cy="260" r="3" fill="#C4B5FD"/>
      <circle cx="90" cy="260" r="3" fill="#C4B5FD"/>
      <circle cx="150" cy="160" r="2" fill="#C4B5FD"/>
      <circle cx="360" cy="360" r="2" fill="#C4B5FD"/>
    </g>
  </g>
  <title>Female Developer Avatar - SVG</title>
  <desc>Flat, friendly avatar illustration of a female developer in a purple theme. Transparent background for easy embedding.</desc>
</svg>
